<?xml version="1.0" encoding="utf-8"?>
<!-- Generator: Adobe Illustrator 26.1.0, SVG Export Plug-In . SVG Version: 6.00 Build 0)  -->
<svg version="1.1" id="Layer_1" xmlns="http://www.w3.org/2000/svg" xmlns:xlink="http://www.w3.org/1999/xlink" x="0px" y="0px"
	 viewBox="0 0 332.64 333.05" style="enable-background:new 0 0 332.64 333.05;" xml:space="preserve">
<style type="text/css">
	.st0{fill:#FFFFFF;}
	.st1{opacity:0.29;fill:#FFFFFF;}
	.st2{opacity:0.6;fill:#FFFFFF;}
</style>
<g>
	<path class="st0" d="M92.86,297.41v4.23H80.63c-2.29,0-4.09-0.24-5.41-0.73c-1.32-0.49-2.29-1.37-2.93-2.65
		c-0.64-1.28-0.95-3.15-0.95-5.6c0-2.33,0.3-4.12,0.9-5.35c0.6-1.24,1.57-2.1,2.91-2.6c1.34-0.5,3.22-0.75,5.65-0.75
		c1.29,0,2.84,0.05,4.64,0.14c1.8,0.09,3.07,0.2,3.81,0.31v13H92.86z M75.98,292.66c0,1.29,0.17,2.28,0.5,2.96
		c0.33,0.68,0.85,1.15,1.54,1.4c0.69,0.25,1.64,0.38,2.84,0.38h3.74v-9.05c-1.16-0.12-2.37-0.17-3.64-0.17
		c-1.27,0-2.26,0.13-2.96,0.38c-0.71,0.25-1.22,0.7-1.54,1.33C76.15,290.54,75.98,291.46,75.98,292.66L75.98,292.66z M76.78,276.75
		h3.57v4.33h-3.57V276.75z M82.05,276.75h3.57v4.33h-3.57V276.75z M102.67,284.31v17.33h-9.81v-4.23h5.16v-13.1H102.67z
		 M95.98,304.41h3.57v4.33h-3.57V304.41z M101.25,304.41h3.57v4.33h-3.57V304.41z M109.01,310.23c-0.3,0-1.14-0.05-2.53-0.14v-4.16
		l1.18,0.07c0.83,0,1.46-0.33,1.87-0.99c0.42-0.66,0.62-1.59,0.62-2.79v-17.92h4.64v17.12c0,2.77-0.48,4.93-1.44,6.48
		C112.4,309.46,110.95,310.23,109.01,310.23L109.01,310.23z M127.69,297.41v4.23h-8.04v-24.26h4.64v20.03H127.69z M150.36,297.41
		v4.23h-22.67v-4.23h3.71c-0.39-1.41-0.59-3-0.59-4.78c0-2.1,0.33-3.75,0.99-4.96c0.66-1.2,1.66-2.06,3-2.56
		c1.34-0.51,3.11-0.76,5.3-0.76c1.94,0,3.64,0.08,5.09,0.24l1.8,0.21v12.62H150.36z M135.52,276.75h3.57v4.33h-3.57V276.75z
		 M135.52,293.49c0,0.88,0.06,1.59,0.17,2.13c0.12,0.54,0.28,1.14,0.49,1.78h6.17v-8.84c-1.02-0.07-1.81-0.1-2.39-0.1
		c-1.25,0-2.18,0.14-2.79,0.42c-0.61,0.28-1.04,0.76-1.28,1.46C135.65,291.03,135.52,292.08,135.52,293.49L135.52,293.49z
		 M140.79,276.75h3.57v4.33h-3.57V276.75z M173.44,297.41v4.23h-4.54c-1.16,0-2.33-0.13-3.52-0.4c-1.19-0.27-2.3-0.63-3.34-1.09
		c-1.04,0.46-2.14,0.83-3.31,1.09c-1.17,0.27-2.28,0.4-3.34,0.4h-5.03v-4.23h4.92c0.72,0,1.5-0.09,2.36-0.28
		c-1.64-1.48-2.88-2.78-3.73-3.92c-0.84-1.13-1.26-2.32-1.26-3.57l-0.1-3.05c1.09-0.69,2.51-1.32,4.26-1.87
		c1.76-0.55,3.49-0.83,5.2-0.83c1.69,0,3.43,0.28,5.22,0.83c1.79,0.55,3.25,1.18,4.38,1.87l-0.14,3.05c0,1.27-0.42,2.46-1.26,3.57
		c-0.84,1.11-2.09,2.41-3.73,3.92c0.85,0.19,1.65,0.28,2.39,0.28H173.44z M162.07,295.33c1.71-1.06,2.96-2.15,3.76-3.26
		c0.8-1.11,1.2-2.14,1.2-3.08c-1.71-0.58-3.37-0.87-4.99-0.87c-1.59,0-3.22,0.29-4.89,0.87c0,0.97,0.42,2.03,1.25,3.19
		C159.23,293.33,160.45,294.38,162.07,295.33L162.07,295.33z M182.35,277.38v24.26h-8.91v-4.23h4.26v-20.03H182.35z M187.89,277.38
		h4.64v24.26h-4.64V277.38z M226.19,297.41v4.23h-12.23c-2.29,0-4.09-0.24-5.41-0.73c-1.32-0.49-2.29-1.37-2.93-2.65
		c-0.64-1.28-0.95-3.15-0.95-5.6c0-2.33,0.3-4.12,0.9-5.35c0.6-1.24,1.57-2.1,2.91-2.6c1.34-0.5,3.22-0.75,5.65-0.75
		c1.29,0,2.84,0.05,4.64,0.14c1.8,0.09,3.07,0.2,3.81,0.31v13H226.19z M209.31,292.66c0,1.29,0.17,2.28,0.5,2.96
		c0.33,0.68,0.85,1.15,1.54,1.4c0.69,0.25,1.64,0.38,2.84,0.38h3.74v-9.05c-1.16-0.12-2.37-0.17-3.64-0.17
		c-1.27,0-2.26,0.13-2.96,0.38c-0.71,0.25-1.22,0.7-1.54,1.33C209.47,290.54,209.31,291.46,209.31,292.66L209.31,292.66z
		 M210.11,276.75h3.57v4.33h-3.57V276.75z M215.38,276.75h3.57v4.33h-3.57V276.75z M235.1,277.38v24.26h-8.91v-4.23h4.26v-20.03
		H235.1z M248.68,297.41v4.23h-8.04v-24.26h4.64v20.03H248.68z M258.49,284.31v17.33h-9.81v-4.23h5.16v-13.1H258.49z M251.8,276.75
		h3.57v4.33h-3.57V276.75z M257.07,276.75h3.57v4.33h-3.57V276.75z"/>
	<g>
		<path class="st0" d="M77,332.78v-13.49h-4.81v-2.74h12.9v2.74h-4.81v13.49H77z"/>
		<path class="st0" d="M87.41,324.6l-2.82-0.51c0.34-1.25,0.96-2.13,1.86-2.66c0.77-0.45,1.85-0.67,3.23-0.67
			c2.39,0,3.9,0.58,4.53,1.73c0.29,0.54,0.43,1.47,0.41,2.8l-0.03,3.63c-0.01,1.57,0.23,2.86,0.72,3.87h-3.08
			c-0.09-0.22-0.19-0.53-0.31-0.93c-0.05-0.19-0.09-0.31-0.11-0.36c-1.06,1.04-2.27,1.56-3.63,1.56c-1.12,0-2.04-0.29-2.75-0.88
			c-0.77-0.64-1.15-1.51-1.15-2.6c0-1.39,0.6-2.39,1.81-2.99c0.58-0.28,1.41-0.52,2.47-0.73c1.47-0.27,2.48-0.52,3.02-0.76v-0.3
			c0-0.66-0.19-1.12-0.57-1.36c-0.31-0.2-0.82-0.3-1.54-0.3C88.44,323.13,87.76,323.62,87.41,324.6z M91.57,327.13
			c-0.13,0.04-0.76,0.19-1.89,0.45c-0.89,0.21-1.45,0.4-1.7,0.57c-0.4,0.28-0.6,0.64-0.6,1.1c0,0.47,0.17,0.85,0.51,1.15
			c0.34,0.3,0.75,0.45,1.21,0.45c0.57,0,1.1-0.19,1.6-0.56c0.38-0.27,0.63-0.61,0.75-1.02c0.08-0.28,0.12-0.78,0.12-1.52V327.13z"/>
		<path class="st0" d="M97.69,332.78v-16.23h3.11v16.23H97.69z"/>
		<path class="st0" d="M106.33,324.6l-2.82-0.51c0.34-1.25,0.96-2.13,1.86-2.66c0.77-0.45,1.85-0.67,3.23-0.67
			c2.39,0,3.9,0.58,4.53,1.73c0.29,0.54,0.43,1.47,0.41,2.8l-0.03,3.63c-0.01,1.57,0.23,2.86,0.72,3.87h-3.08
			c-0.09-0.22-0.19-0.53-0.31-0.93c-0.05-0.19-0.09-0.31-0.11-0.36c-1.06,1.04-2.27,1.56-3.63,1.56c-1.12,0-2.04-0.29-2.75-0.88
			c-0.77-0.64-1.15-1.51-1.15-2.6c0-1.39,0.6-2.39,1.81-2.99c0.58-0.28,1.4-0.52,2.47-0.73c1.47-0.27,2.48-0.52,3.02-0.76v-0.3
			c0-0.66-0.19-1.12-0.57-1.36c-0.31-0.2-0.82-0.3-1.54-0.3C107.35,323.13,106.67,323.62,106.33,324.6z M110.49,327.13
			c-0.13,0.04-0.76,0.19-1.89,0.45c-0.89,0.21-1.45,0.4-1.7,0.57c-0.4,0.28-0.6,0.64-0.6,1.1c0,0.47,0.17,0.85,0.51,1.15
			c0.34,0.3,0.75,0.45,1.21,0.45c0.57,0,1.1-0.19,1.6-0.56c0.38-0.27,0.63-0.61,0.75-1.02c0.08-0.28,0.12-0.78,0.12-1.52V327.13z"/>
		<path class="st0" d="M119.71,316.55v5.96c1.01-1.17,2.22-1.76,3.61-1.76c1.49,0,2.57,0.47,3.23,1.41
			c0.51,0.72,0.76,1.95,0.76,3.71v6.9h-3.11v-6.22c0-0.95-0.01-1.51-0.03-1.7c-0.1-0.69-0.36-1.16-0.77-1.43
			c-0.3-0.2-0.67-0.3-1.13-0.3c-1.14,0-1.9,0.51-2.27,1.52c-0.19,0.51-0.29,1.25-0.29,2.24v5.89h-3.11v-16.23H119.71z"/>
		<path class="st0" d="M138.51,332.78v-16.23h6.9c1.44,0,2.49,0.08,3.15,0.25c1.12,0.28,1.95,0.86,2.51,1.75
			c0.48,0.75,0.72,1.6,0.72,2.56c0,2.59-1.43,4.09-4.28,4.51c0.81,0.47,1.51,1.05,2.08,1.74c0.34,0.41,0.86,1.16,1.54,2.26
			l1.98,3.17h-3.91l-2.37-3.53c-0.72-1.06-1.11-1.63-1.18-1.72c-0.56-0.73-1.08-1.18-1.55-1.34c-0.34-0.12-0.89-0.18-1.65-0.18
			h-0.66v6.78H138.51z M141.78,323.42h2.42c1.21,0,1.9-0.01,2.08-0.04c0.88-0.1,1.48-0.38,1.8-0.85c0.22-0.33,0.34-0.73,0.34-1.22
			c0-1.13-0.56-1.78-1.68-1.97c-0.24-0.03-1.04-0.04-2.41-0.04h-2.55V323.42z"/>
		<path class="st0" d="M161.47,329.03l3.1,0.52c-0.82,2.33-2.53,3.5-5.12,3.5c-2.05,0-3.56-0.67-4.53-2
			c-0.78-1.07-1.18-2.42-1.18-4.06c0-1.77,0.45-3.23,1.35-4.37c0.98-1.24,2.33-1.86,4.05-1.86c1.99,0,3.46,0.7,4.42,2.09
			c0.82,1.22,1.21,2.86,1.16,4.95h-7.78c0.01,0.83,0.23,1.51,0.65,2.05c0.46,0.59,1.1,0.88,1.9,0.88
			C160.48,330.72,161.14,330.16,161.47,329.03z M161.64,325.89c-0.01-0.77-0.21-1.41-0.57-1.91c-0.41-0.57-0.99-0.85-1.75-0.85
			c-0.75,0-1.33,0.28-1.76,0.84c-0.4,0.51-0.59,1.15-0.58,1.92H161.64z"/>
		<path class="st0" d="M169.6,324.6l-2.82-0.51c0.34-1.25,0.96-2.13,1.86-2.66c0.77-0.45,1.85-0.67,3.23-0.67
			c2.39,0,3.9,0.58,4.53,1.73c0.29,0.54,0.43,1.47,0.41,2.8l-0.03,3.63c-0.01,1.57,0.23,2.86,0.72,3.87h-3.08
			c-0.09-0.22-0.19-0.53-0.31-0.93c-0.05-0.19-0.09-0.31-0.11-0.36c-1.06,1.04-2.27,1.56-3.63,1.56c-1.12,0-2.04-0.29-2.75-0.88
			c-0.77-0.64-1.15-1.51-1.15-2.6c0-1.39,0.6-2.39,1.81-2.99c0.58-0.28,1.4-0.52,2.47-0.73c1.47-0.27,2.48-0.52,3.02-0.76v-0.3
			c0-0.66-0.19-1.12-0.57-1.36c-0.31-0.2-0.82-0.3-1.54-0.3C170.62,323.13,169.94,323.62,169.6,324.6z M173.76,327.13
			c-0.13,0.04-0.76,0.19-1.89,0.45c-0.89,0.21-1.45,0.4-1.7,0.57c-0.4,0.28-0.6,0.64-0.6,1.1c0,0.47,0.17,0.85,0.51,1.15
			c0.34,0.3,0.75,0.45,1.21,0.45c0.57,0,1.1-0.19,1.6-0.56c0.38-0.27,0.63-0.61,0.75-1.02c0.08-0.28,0.12-0.78,0.12-1.52V327.13z"/>
		<path class="st0" d="M179.88,332.78v-16.23h3.11v16.23H179.88z"/>
		<path class="st0" d="M194.2,332.78v-16.23h12.04v2.74h-8.76v3.59h8.16v2.75h-8.16v4.41h9.07v2.74H194.2z"/>
		<path class="st0" d="M208.2,329.41l3.12-0.46c0.28,1.23,1.12,1.85,2.52,1.85c1.48,0,2.23-0.43,2.23-1.29
			c0-0.48-0.42-0.81-1.25-0.99c-2.53-0.56-4.12-1.06-4.78-1.51c-0.93-0.63-1.4-1.52-1.4-2.65c0-1.26,0.54-2.21,1.61-2.84
			c0.86-0.51,1.98-0.76,3.34-0.76c1.38,0,2.46,0.2,3.23,0.59c0.97,0.49,1.63,1.32,1.97,2.52l-2.94,0.55
			c-0.25-0.95-0.99-1.43-2.21-1.43c-1.41,0-2.11,0.33-2.11,0.98c0,0.22,0.1,0.42,0.31,0.57c0.31,0.22,1.31,0.53,2.99,0.9
			c1.63,0.36,2.77,0.81,3.41,1.35c0.64,0.54,0.96,1.31,0.96,2.3c0,1.33-0.59,2.36-1.76,3.07c-0.97,0.59-2.17,0.88-3.59,0.88
			C210.7,333.05,208.83,331.84,208.2,329.41z"/>
		<path class="st0" d="M227.31,321.01v2.48h-2.13v4.74c0,0.92,0,1.28-0.01,1.1c0.02,0.5,0.14,0.82,0.35,0.97
			c0.15,0.1,0.32,0.16,0.53,0.16c0.29,0,0.71-0.1,1.25-0.3l0.26,2.42c-0.72,0.31-1.54,0.47-2.46,0.47c-1.19,0-2.02-0.34-2.49-1.02
			c-0.2-0.29-0.35-0.69-0.45-1.21c-0.06-0.4-0.09-1.13-0.09-2.19v-5.13h-1.43v-2.48h1.43v-2.34l3.12-1.81v4.15H227.31z"/>
		<path class="st0" d="M231.8,324.6l-2.82-0.51c0.34-1.25,0.96-2.13,1.86-2.66c0.77-0.45,1.85-0.67,3.23-0.67
			c2.39,0,3.9,0.58,4.53,1.73c0.29,0.54,0.43,1.47,0.41,2.8l-0.03,3.63c-0.01,1.57,0.23,2.86,0.72,3.87h-3.08
			c-0.09-0.22-0.19-0.53-0.31-0.93c-0.05-0.19-0.09-0.31-0.11-0.36c-1.06,1.04-2.27,1.56-3.63,1.56c-1.12,0-2.04-0.29-2.75-0.88
			c-0.77-0.64-1.15-1.51-1.15-2.6c0-1.39,0.6-2.39,1.81-2.99c0.58-0.28,1.4-0.52,2.47-0.73c1.47-0.27,2.48-0.52,3.02-0.76v-0.3
			c0-0.66-0.19-1.12-0.57-1.36c-0.31-0.2-0.82-0.3-1.54-0.3C232.83,323.13,232.15,323.62,231.8,324.6z M235.96,327.13
			c-0.13,0.04-0.76,0.19-1.89,0.45c-0.89,0.21-1.45,0.4-1.7,0.57c-0.4,0.28-0.6,0.64-0.6,1.1c0,0.47,0.17,0.85,0.51,1.15
			c0.34,0.3,0.75,0.45,1.21,0.45c0.57,0,1.1-0.19,1.6-0.56c0.38-0.27,0.63-0.61,0.75-1.02c0.08-0.28,0.12-0.78,0.12-1.52V327.13z"/>
		<path class="st0" d="M247.49,321.01v2.48h-2.13v4.74c0,0.92,0,1.28-0.01,1.1c0.02,0.5,0.14,0.82,0.35,0.97
			c0.15,0.1,0.32,0.16,0.53,0.16c0.29,0,0.71-0.1,1.25-0.3l0.26,2.42c-0.72,0.31-1.54,0.47-2.46,0.47c-1.19,0-2.02-0.34-2.49-1.02
			c-0.2-0.29-0.35-0.69-0.45-1.21c-0.06-0.4-0.09-1.13-0.09-2.19v-5.13h-1.43v-2.48h1.43v-2.34l3.12-1.81v4.15H247.49z"/>
		<path class="st0" d="M256.47,329.03l3.1,0.52c-0.82,2.33-2.53,3.5-5.12,3.5c-2.05,0-3.56-0.67-4.53-2
			c-0.78-1.07-1.18-2.42-1.18-4.06c0-1.77,0.45-3.23,1.35-4.37c0.98-1.24,2.33-1.86,4.05-1.86c1.99,0,3.46,0.7,4.42,2.09
			c0.82,1.22,1.21,2.86,1.16,4.95h-7.78c0.01,0.83,0.23,1.51,0.65,2.05c0.46,0.59,1.1,0.88,1.9,0.88
			C255.48,330.72,256.14,330.16,256.47,329.03z M256.64,325.89c-0.01-0.77-0.21-1.41-0.57-1.91c-0.41-0.57-0.99-0.85-1.75-0.85
			c-0.75,0-1.33,0.28-1.76,0.84c-0.4,0.51-0.59,1.15-0.58,1.92H256.64z"/>
	</g>
	<g>
		<g>
			<g>
				<polyline class="st0" points="209.3,29.96 209.3,227.89 234.63,227.89 234.63,53.82 286.64,105.83 265.69,126.78 265.69,258.95 
					178.24,258.95 178.24,0 				"/>
				<polyline class="st0" points="121.84,29.96 121.84,227.89 96.51,227.89 96.51,53.82 44.5,105.83 65.45,126.78 65.45,258.95 
					152.91,258.95 152.91,0 				"/>
				<g>
					
						<rect x="275.94" y="114.77" transform="matrix(0.7071 -0.7071 0.7071 0.7071 -5.9399 242.2603)" class="st0" width="27.05" height="27.05"/>
				</g>
				<g>
					
						<rect x="299.98" y="138.82" transform="matrix(0.7071 -0.7071 0.7071 0.7071 -15.9004 266.3069)" class="st0" width="27.05" height="27.05"/>
				</g>
				<g>
					
						<rect x="28.24" y="114.77" transform="matrix(0.7071 -0.7071 0.7071 0.7071 -78.4875 67.1149)" class="st0" width="27.05" height="27.05"/>
				</g>
				<g>
					
						<rect x="5.6" y="137.42" transform="matrix(0.7071 -0.7071 0.7071 0.7071 -101.1271 57.7327)" class="st0" width="27.05" height="27.05"/>
				</g>
			</g>
		</g>
		<polygon class="st1" points="266.1,257.97 235,227.89 266.1,158.07 		"/>
		<polygon class="st1" points="209.3,227.89 178.24,147.43 177.48,258.95 183.36,258.95 		"/>
		<polygon class="st0" points="209.3,84.41 178.24,154.1 209.3,227.89 		"/>
		<polygon class="st1" points="152.91,152.98 152.53,36.55 152.53,24.04 121.09,94.58 		"/>
		<polygon class="st1" points="178.05,24.04 178.43,140.47 178.43,152.98 209.86,82.44 		"/>
		<polygon class="st1" points="152.91,258.95 121.84,227.7 152.91,146.24 		"/>
		<polygon class="st2" points="67.5,258.95 94.69,228.08 121.84,227.89 152.91,258.76 		"/>
		<polygon class="st1" points="65.45,153.76 65.45,258.95 69.57,258.95 96.51,225.96 		"/>
		<polygon class="st0" points="235,227.89 234.63,91.29 266.1,158.07 		"/>
		<polygon class="st0" points="96.51,82.46 65.45,153.63 96.51,228.98 		"/>
		<polygon class="st0" points="122.17,227.42 121.81,82.65 152.91,153.42 		"/>
		<polygon class="st2" points="266.1,258.95 183.36,258.95 209.3,227.89 235,227.89 266.1,258.04 		"/>
	</g>
</g>
</svg>
